<svg width="13" height="10" viewBox="0 0 13 10" fill="none" xmlns="http://www.w3.org/2000/svg">
<path d="M2.05263 0H4.78947L6.8421 2H10.9474C11.4918 2 12.0139 2.21071 12.3988 2.58579C12.7837 2.96086 13 3.46957 13 4V8C13 8.53043 12.7837 9.03914 12.3988 9.41421C12.0139 9.78929 11.4918 10 10.9474 10H2.05263C1.50824 10 0.986145 9.78929 0.601202 9.41421C0.216259 9.03914 0 8.53043 0 8V2C0 1.46957 0.216259 0.960859 0.601202 0.585787C0.986145 0.210714 1.50824 0 2.05263 0ZM2.6 1.33333C2.23707 1.33333 1.88163 1.41662 1.625 1.66667C1.36837 1.91672 1.3 2.31304 1.3 2.66667V7.33333C1.3 7.68696 1.36837 8.08329 1.625 8.33333C1.88163 8.58338 2.23707 8.66667 2.6 8.66667H10.4C10.7629 8.66667 11.1184 8.58338 11.375 8.33333C11.6316 8.08329 11.7 7.68696 11.7 7.33333V4.66667C11.7 4.31305 11.6316 3.91672 11.375 3.66667C11.1184 3.41662 10.7629 3.33333 10.4 3.33333H6.5L4.55 1.33333H2.6Z" fill="#030923" fill-opacity="0.8"/>
</svg>
