<svg width="12" height="12" viewBox="0 0 12 12" fill="none" xmlns="http://www.w3.org/2000/svg">
<path d="M5.89439 0.893169C5.70685 0.705574 5.45247 0.600154 5.18721 0.600098H1.60034C1.33506 0.600098 1.08064 0.70548 0.893062 0.893062C0.70548 1.08064 0.600098 1.33506 0.600098 1.60034V5.18721C0.600154 5.45247 0.705574 5.70685 0.893169 5.89439L5.24623 10.2474C5.47354 10.4733 5.78098 10.6001 6.10144 10.6001C6.42189 10.6001 6.72933 10.4733 6.95664 10.2474L10.2474 6.95664C10.4733 6.72933 10.6001 6.42189 10.6001 6.10144C10.6001 5.78098 10.4733 5.47354 10.2474 5.24623L5.89439 0.893169Z" stroke="#030923" stroke-opacity="0.8" stroke-width="1.2" stroke-linecap="round" stroke-linejoin="round"/>
<path d="M3.35065 3.60071C3.48875 3.60071 3.60071 3.48875 3.60071 3.35065C3.60071 3.21254 3.48875 3.10059 3.35065 3.10059C3.21254 3.10059 3.10059 3.21254 3.10059 3.35065C3.10059 3.48875 3.21254 3.60071 3.35065 3.60071Z" fill="#030923" fill-opacity="0.8" stroke="#030923" stroke-opacity="0.8" stroke-width="2" stroke-linecap="round" stroke-linejoin="round"/>
</svg>
