<svg width="11" height="11" viewBox="0 0 11 11" fill="none" xmlns="http://www.w3.org/2000/svg">
<path d="M3.71875 7.28125L9.25 0.5M1.75 0.5L7.28125 7.28125M0.5 8.625C0.5 8.87123 0.548498 9.11505 0.642726 9.34253C0.736954 9.57002 0.875065 9.77672 1.04917 9.95083C1.22328 10.1249 1.42998 10.263 1.65747 10.3573C1.88495 10.4515 2.12877 10.5 2.375 10.5C2.62123 10.5 2.86505 10.4515 3.09253 10.3573C3.32002 10.263 3.52672 10.1249 3.70083 9.95083C3.87494 9.77672 4.01305 9.57002 4.10727 9.34253C4.2015 9.11505 4.25 8.87123 4.25 8.625C4.25 8.37877 4.2015 8.13495 4.10727 7.90747C4.01305 7.67998 3.87494 7.47328 3.70083 7.29917C3.52672 7.12506 3.32002 6.98695 3.09253 6.89273C2.86505 6.7985 2.62123 6.75 2.375 6.75C2.12877 6.75 1.88495 6.7985 1.65747 6.89273C1.42998 6.98695 1.22328 7.12506 1.04917 7.29917C0.875065 7.47328 0.736954 7.67998 0.642726 7.90747C0.548498 8.13495 0.5 8.37877 0.5 8.625ZM6.75 8.625C6.75 9.12228 6.94754 9.59919 7.29917 9.95083C7.65081 10.3025 8.12772 10.5 8.625 10.5C9.12228 10.5 9.59919 10.3025 9.95083 9.95083C10.3025 9.59919 10.5 9.12228 10.5 8.625C10.5 8.12772 10.3025 7.65081 9.95083 7.29917C9.59919 6.94754 9.12228 6.75 8.625 6.75C8.12772 6.75 7.65081 6.94754 7.29917 7.29917C6.94754 7.65081 6.75 8.12772 6.75 8.625Z" stroke="white" stroke-linecap="round" stroke-linejoin="round"/>
</svg>
