<svg width="10" height="7" viewBox="0 0 10 7" fill="none" xmlns="http://www.w3.org/2000/svg">
<path d="M10 3.49976C10 3.87253 9.7405 4.15824 9.456 4.35425C9.1655 4.55464 8.776 4.71565 8.34 4.84298C7.4625 5.09893 6.2815 5.24988 5 5.24988C3.7185 5.24988 2.5375 5.09893 1.66 4.84298C1.2235 4.71609 0.8345 4.55421 0.544001 4.35425C0.259001 4.15824 0 3.87297 0 3.49976C0 2.97603 0.499002 2.6247 0.961501 2.41206C1.4655 2.17929 2.148 2.00384 2.9185 1.89183C3.04938 1.87292 3.1835 1.90028 3.29133 1.96789C3.39916 2.0355 3.47189 2.13783 3.4935 2.25236C3.51512 2.36689 3.48385 2.48425 3.40659 2.57861C3.32932 2.67297 3.21239 2.7366 3.0815 2.75552C2.3705 2.85834 1.8025 3.01322 1.4275 3.18605C1.2395 3.27268 1.1225 3.35362 1.0575 3.41794C0.972501 3.50282 1.0225 3.56407 1.101 3.62314L1.163 3.66689C1.328 3.78065 1.598 3.90272 1.976 4.01254C2.727 4.23175 3.796 4.37482 5 4.37482C6.204 4.37482 7.273 4.23175 8.024 4.01298C8.402 3.90272 8.672 3.78109 8.837 3.66733L8.895 3.62533C8.977 3.56189 9.026 3.49582 8.932 3.40788C8.856 3.33656 8.721 3.24905 8.51 3.15848C8.28677 3.06503 8.05475 2.98862 7.8165 2.93009C7.8359 3.02364 7.81995 3.12018 7.77106 3.20509C7.72217 3.29 7.64301 3.35867 7.54554 3.4007C7.44807 3.44272 7.33762 3.45582 7.23089 3.43801C7.12415 3.4202 7.02695 3.37246 6.954 3.30199L6.915 3.25868L6.349 2.55119C6.27064 2.45968 6.23648 2.3449 6.25387 2.23156C6.27127 2.11822 6.33882 2.01539 6.442 1.94521L7.2835 1.43068C7.38156 1.3706 7.50099 1.34329 7.6201 1.35373C7.7392 1.36416 7.85008 1.41164 7.93258 1.48754C8.01508 1.56344 8.06372 1.66272 8.06967 1.76734C8.07562 1.87195 8.03848 1.97497 7.965 2.05766C8.336 2.1456 8.67 2.25148 8.952 2.37312C9.227 2.49169 9.476 2.63564 9.663 2.81065C9.853 2.98828 10 3.22105 10 3.49976ZM5.5 3.93729H4.5V0.437045C4.50014 0.325528 4.54894 0.218266 4.63642 0.137176C4.72391 0.0560858 4.84348 0.00728801 4.9707 0.000752569C5.09792 -0.00578287 5.22319 0.0304375 5.32092 0.102013C5.41864 0.173589 5.48145 0.275117 5.4965 0.385854L5.5 0.437045V3.93729ZM5.5 6.56247V5.68741H4.5V6.56247C4.5 6.67851 4.55268 6.7898 4.64645 6.87185C4.74022 6.9539 4.86739 7 5 7C5.13261 7 5.25979 6.9539 5.35355 6.87185C5.44732 6.7898 5.5 6.67851 5.5 6.56247Z" fill="white"/>
</svg>
