<svg width="24" height="20" viewBox="0 0 24 20" fill="none" xmlns="http://www.w3.org/2000/svg">
<path d="M2.4 9.6C2.4 10.68 2.6152 11.6752 3.0456 12.5856C3.476 13.496 4.0608 14.2808 4.8 14.94V13.2C4.8 12.86 4.9152 12.5752 5.1456 12.3456C5.376 12.116 5.6608 12.0008 6 12C6.3392 11.9992 6.6244 12.1144 6.8556 12.3456C7.0868 12.5768 7.2016 12.8616 7.2 13.2V18C7.2 18.34 7.0848 18.6252 6.8544 18.8556C6.624 19.086 6.3392 19.2008 6 19.2H1.2C0.860004 19.2 0.575204 19.0848 0.345604 18.8544C0.116004 18.624 0.000804138 18.3392 4.13793e-06 18C-0.000795862 17.6608 0.114404 17.376 0.345604 17.1456C0.576804 16.9152 0.861604 16.8 1.2 16.8H3.27C2.25 15.92 1.45 14.86 0.870004 13.62C0.290004 12.38 4.13793e-06 11.04 4.13793e-06 9.6C4.13793e-06 7.7 0.494804 5.99 1.4844 4.47C2.474 2.95 3.7592 1.79 5.34 0.99C5.62 0.83 5.91 0.8252 6.21 0.9756C6.51 1.126 6.71 1.3608 6.81 1.68C6.91 1.9992 6.8948 2.3092 6.7644 2.61C6.634 2.9108 6.4292 3.1408 6.15 3.3C5.03 3.92 4.1252 4.7852 3.4356 5.8956C2.746 7.006 2.4008 8.2408 2.4 9.6ZM13.2 19.2C12.2 19.2 11.35 18.85 10.65 18.15C9.95 17.45 9.6 16.6 9.6 15.6C9.6 14.64 9.93 13.8152 10.59 13.1256C11.25 12.436 12.06 12.0708 13.02 12.03C13.36 11.31 13.8652 10.7248 14.5356 10.2744C15.206 9.824 15.9608 9.5992 16.8 9.6C17.86 9.6 18.7752 9.9452 19.5456 10.6356C20.316 11.326 20.7808 12.1808 20.94 13.2C21.78 13.2 22.5 13.49 23.1 14.07C23.7 14.65 24 15.35 24 16.17C24 17.01 23.71 17.7252 23.13 18.3156C22.55 18.906 21.84 19.2008 21 19.2H13.2ZM14.4 4.26V6C14.4 6.34 14.2848 6.6252 14.0544 6.8556C13.824 7.086 13.5392 7.2008 13.2 7.2C12.8608 7.1992 12.576 7.084 12.3456 6.8544C12.1152 6.6248 12 6.34 12 6V1.2C12 0.86 12.1152 0.5752 12.3456 0.3456C12.576 0.116 12.8608 0.0008 13.2 0H18C18.34 0 18.6252 0.1152 18.8556 0.3456C19.086 0.576 19.2008 0.8608 19.2 1.2C19.1992 1.5392 19.084 1.8244 18.8544 2.0556C18.6248 2.2868 18.34 2.4016 18 2.4H15.93C16.59 2.98 17.1652 3.6452 17.6556 4.3956C18.146 5.146 18.5208 5.9608 18.78 6.84C18.88 7.16 18.84 7.45 18.66 7.71C18.48 7.97 18.22 8.13 17.88 8.19C17.54 8.25 17.2352 8.1852 16.9656 7.9956C16.696 7.806 16.5008 7.5508 16.38 7.23C16.18 6.65 15.91 6.11 15.57 5.61C15.23 5.11 14.84 4.66 14.4 4.26ZM13.2 16.8H21C21.16 16.8 21.3 16.74 21.42 16.62C21.54 16.5 21.6 16.36 21.6 16.2C21.6 16.04 21.54 15.9 21.42 15.78C21.3 15.66 21.16 15.6 21 15.6H18.9V14.1C18.9 13.52 18.6948 13.0252 18.2844 12.6156C17.874 12.206 17.3792 12.0008 16.8 12C16.2208 11.9992 15.726 12.2044 15.3156 12.6156C14.9052 13.0268 14.7 13.5216 14.7 14.1V14.4H13.2C12.86 14.4 12.5752 14.5152 12.3456 14.7456C12.116 14.976 12.0008 15.2608 12 15.6C11.9992 15.9392 12.1144 16.2244 12.3456 16.4556C12.5768 16.6868 12.8616 16.8016 13.2 16.8Z" fill="white"/>
</svg>
