<svg width="24" height="24" viewBox="0 0 24 24" fill="none" xmlns="http://www.w3.org/2000/svg">
<path d="M11 12.1501V6.1001C9.73333 6.33343 8.75 6.9461 8.05 7.9381C7.35 8.9301 7 9.95076 7 11.0001H6.5C5.53333 11.0001 4.70833 11.3418 4.025 12.0251C3.34167 12.7084 3 13.5334 3 14.5001C3 15.4668 3.34167 16.2918 4.025 16.9751C4.70833 17.6584 5.53333 18.0001 6.5 18.0001H18.5C19.2 18.0001 19.7917 17.7584 20.275 17.2751C20.7583 16.7918 21 16.2001 21 15.5001C21 14.8001 20.7583 14.2084 20.275 13.7251C19.7917 13.2418 19.2 13.0001 18.5 13.0001H17V11.0001C17 10.2001 16.8167 9.4541 16.45 8.7621C16.0833 8.0701 15.6 7.48276 15 7.0001V4.6751C16.2333 5.25843 17.2083 6.1211 17.925 7.2631C18.6417 8.4051 19 9.65076 19 11.0001C20.15 11.1334 21.1043 11.6294 21.863 12.4881C22.6217 13.3468 23.0007 14.3508 23 15.5001C23 16.7501 22.5627 17.8128 21.688 18.6881C20.8133 19.5634 19.7507 20.0008 18.5 20.0001H6.5C4.98333 20.0001 3.68767 19.4751 2.613 18.4251C1.53833 17.3751 1.00067 16.0918 1 14.5751C1 13.2751 1.39167 12.1168 2.175 11.1001C2.95833 10.0834 3.98333 9.43343 5.25 9.1501C5.53333 7.9501 6.24167 6.80843 7.375 5.7251C8.50833 4.64176 9.71667 4.1001 11 4.1001C11.55 4.1001 12.021 4.2961 12.413 4.6881C12.805 5.0801 13.0007 5.55076 13 6.1001V12.1501L13.9 11.2751C14.0833 11.0918 14.3127 11.0001 14.588 11.0001C14.8633 11.0001 15.1007 11.1001 15.3 11.3001C15.4833 11.4834 15.575 11.7168 15.575 12.0001C15.575 12.2834 15.4833 12.5168 15.3 12.7001L12.7 15.3001C12.5 15.5001 12.2667 15.6001 12 15.6001C11.7333 15.6001 11.5 15.5001 11.3 15.3001L8.7 12.7001C8.51667 12.5168 8.421 12.2878 8.413 12.0131C8.405 11.7384 8.50067 11.5008 8.7 11.3001C8.88333 11.1168 9.11267 11.0208 9.388 11.0121C9.66333 11.0034 9.90067 11.0911 10.1 11.2751L11 12.1501Z" fill="white"/>
</svg>
