<svg width="12" height="12" viewBox="0 0 12 12" fill="none" xmlns="http://www.w3.org/2000/svg">
<path d="M0 8.90625L0 11.125H2.21875L9.13125 4.3375L6.7875 1.99375L0 8.90625ZM1.7 10.125H1V9.425L7 3.55L7.575 4.125L1.7 10.125ZM10.9437 1.64375L9.48125 0.18125C9.35625 0.05625 9.2 0 9.0375 0C8.875 0 8.71875 0.0625 8.6 0.18125L7.45625 1.325L9.8 3.66875L10.9437 2.525C11.0017 2.46718 11.0477 2.3985 11.079 2.32289C11.1104 2.24728 11.1265 2.16623 11.1265 2.08437C11.1265 2.00252 11.1104 1.92147 11.079 1.84586C11.0477 1.77025 11.0017 1.70157 10.9437 1.64375Z" fill="#030923" fill-opacity="0.8"/>
</svg>
