<svg width="19" height="19" viewBox="0 0 19 19" fill="none" xmlns="http://www.w3.org/2000/svg">
<path d="M1.459 7.8207L0.729499 8.54178C0.327984 8.1449 0.327984 7.4965 0.729499 7.09961L1.459 7.8207ZM19 15.9801C19 16.2506 18.8913 16.51 18.6978 16.7013C18.5043 16.8925 18.2418 17 17.9682 17C17.6945 17 17.4321 16.8925 17.2386 16.7013C17.0451 16.51 16.9364 16.2506 16.9364 15.9801H19ZM6.60965 12.9287C6.21009 13.3236 5.56714 13.3236 5.16758 12.9287L0.729499 8.54178L2.1885 7.09961L6.60965 11.4698C7.01583 11.8713 7.01583 12.5272 6.60965 12.9287ZM0.729499 7.09961L5.16758 2.71272C5.56714 2.31777 6.21009 2.31777 6.60965 2.71272C7.01583 3.11421 7.01583 3.77013 6.60965 4.17162L2.1885 8.54178L0.729499 7.09961ZM1.459 6.80078H11.7772V8.84062H1.459V6.80078ZM19 13.9402V15.9801H16.9364V13.9402H19ZM11.7772 6.80078C13.6928 6.80078 15.53 7.55297 16.8845 8.89187C18.239 10.2308 19 12.0467 19 13.9402H16.9364C16.9364 12.5877 16.3928 11.2906 15.4253 10.3343C14.4578 9.3779 13.1455 8.84062 11.7772 8.84062V6.80078Z" fill="white"/>
</svg>
