<svg width="19" height="19" viewBox="0 0 19 19" fill="none" xmlns="http://www.w3.org/2000/svg">
<path d="M17.541 7.8207L18.2705 8.54178C18.672 8.1449 18.672 7.4965 18.2705 7.09961L17.541 7.8207ZM0 15.9801C0 16.2506 0.108709 16.51 0.302214 16.7013C0.495718 16.8925 0.758167 17 1.03182 17C1.30548 17 1.56793 16.8925 1.76143 16.7013C1.95494 16.51 2.06365 16.2506 2.06365 15.9801H0ZM12.3903 12.9287C12.7899 13.3236 13.4329 13.3236 13.8324 12.9287L18.2705 8.54178L16.8115 7.09961L12.3903 11.4698C11.9842 11.8713 11.9842 12.5272 12.3903 12.9287ZM18.2705 7.09961L13.8324 2.71272C13.4329 2.31777 12.7899 2.31777 12.3903 2.71272C11.9842 3.11421 11.9842 3.77013 12.3903 4.17162L16.8115 8.54178L18.2705 7.09961ZM17.541 6.80078H7.22277V8.84062H17.541V6.80078ZM0 13.9402V15.9801H2.06365V13.9402H0ZM7.22277 6.80078C5.30717 6.80078 3.47003 7.55297 2.1155 8.89187C0.760967 10.2308 0 12.0467 0 13.9402H2.06365C2.06365 12.5877 2.6072 11.2906 3.57472 10.3343C4.54224 9.3779 5.85448 8.84062 7.22277 8.84062V6.80078Z" fill="white"/>
</svg>
