<svg width="10" height="10" viewBox="0 0 10 10" fill="none" xmlns="http://www.w3.org/2000/svg">
<path d="M9 3.8335C9 3.72407 8.97839 3.61575 8.93652 3.51465C8.89464 3.41352 8.83326 3.32154 8.75586 3.24414C8.67846 3.16674 8.58648 3.10536 8.48535 3.06348C8.38425 3.02161 8.27593 3 8.1665 3H3.8335C3.61244 3 3.40045 3.08783 3.24414 3.24414C3.08783 3.40045 3 3.61244 3 3.8335V8.1665C3 8.27593 3.02161 8.38425 3.06348 8.48535C3.10536 8.58648 3.16674 8.67846 3.24414 8.75586C3.32154 8.83326 3.41352 8.89464 3.51465 8.93652C3.61575 8.97839 3.72407 9 3.8335 9H8.1665C8.27593 9 8.38425 8.97839 8.48535 8.93652C8.58647 8.89464 8.67846 8.83326 8.75586 8.75586C8.83326 8.67846 8.89464 8.58647 8.93652 8.48535C8.97839 8.38425 9 8.27593 9 8.1665V3.8335ZM10 8.1665C10 8.40728 9.95249 8.64571 9.86035 8.86816C9.76821 9.0906 9.63314 9.29265 9.46289 9.46289C9.29265 9.63314 9.0906 9.76821 8.86816 9.86035C8.64571 9.95249 8.40728 10 8.1665 10H3.8335C3.59272 10 3.35429 9.95249 3.13184 9.86035C2.9094 9.76821 2.70735 9.63314 2.53711 9.46289C2.36686 9.29264 2.23179 9.0906 2.13965 8.86816C2.04751 8.64571 2 8.40728 2 8.1665V3.8335C2 3.34722 2.19326 2.88096 2.53711 2.53711C2.88096 2.19326 3.34722 2 3.8335 2H8.1665C8.40728 2 8.64571 2.04751 8.86816 2.13965C9.0906 2.23179 9.29264 2.36686 9.46289 2.53711C9.63314 2.70735 9.76821 2.9094 9.86035 3.13184C9.95249 3.35429 10 3.59272 10 3.8335V8.1665Z" fill="white"/>
<path d="M0 1.5C0 0.673858 0.673858 0 1.5 0H6.5C6.78116 0 7.03141 0.0748853 7.24512 0.22998C7.44798 0.377236 7.58476 0.572984 7.68701 0.756836C7.8212 0.998136 7.73442 1.30277 7.49316 1.43701C7.25186 1.5712 6.94723 1.48442 6.81299 1.24316C6.74429 1.11962 6.69331 1.06541 6.65771 1.03955C6.63295 1.02157 6.5938 1 6.5 1H1.5C1.22614 1 1 1.22614 1 1.5V6.49951L1.00439 6.56543C1.01312 6.63057 1.03457 6.69381 1.06787 6.75098C1.11228 6.82715 1.17628 6.89001 1.25293 6.93359C1.49303 7.07001 1.57733 7.37563 1.44092 7.61572C1.30448 7.85575 0.998855 7.93962 0.758789 7.80322C0.528612 7.67241 0.337382 7.48267 0.204102 7.25391C0.0708303 7.02512 0.000256001 6.76526 0 6.50049V1.5Z" fill="white"/>
</svg>
