<svg width="22" height="22" viewBox="0 0 22 22" fill="none" xmlns="http://www.w3.org/2000/svg">
<path d="M1 10.5389V17.0838C1 18.4545 1 19.1398 1.2725 19.6648C1.5125 20.125 1.89375 20.4995 2.365 20.7332C2.89875 21 3.59875 21 4.99625 21H17.0037C18.4012 21 19.1 21 19.6337 20.7332C20.1044 20.4991 20.4873 20.1251 20.7275 19.6648C21 19.141 21 18.4569 21 17.0887V10.5389C21 9.88542 21 9.55867 20.9187 9.25394C20.8468 8.98459 20.7284 8.72923 20.5688 8.49885C20.3875 8.23818 20.1375 8.02157 19.6337 7.59201L13.6338 2.45204C12.7013 1.6529 12.2338 1.25272 11.7088 1.10096C11.2463 0.966345 10.7538 0.966345 10.29 1.10096C9.765 1.25272 9.3 1.65168 8.3675 2.44959L2.36625 7.59201C1.86375 8.02279 1.6125 8.23818 1.4325 8.49763C1.27225 8.72829 1.15346 8.98408 1.08125 9.25394C1 9.55744 1 9.88542 1 10.5389Z" stroke="#030923" stroke-width="2" stroke-linecap="round" stroke-linejoin="round"/>
</svg>
