<svg width="20" height="20" viewBox="0 0 20 20" fill="none" xmlns="http://www.w3.org/2000/svg">
<path fill-rule="evenodd" clip-rule="evenodd" d="M17.7778 1.11409e-07C18.3384 -0.00017731 18.8784 0.211563 19.2895 0.592774C19.7006 0.973986 19.9524 1.49649 19.9944 2.05556L20 2.22222V13.3333C20.0002 13.894 19.7884 14.434 19.4072 14.8451C19.026 15.2561 18.5035 15.508 17.9444 15.55L17.7778 15.5556H15.5556V17.7778C15.5557 18.3384 15.344 18.8784 14.9628 19.2895C14.5816 19.7006 14.0591 19.9524 13.5 19.9944L13.3333 20H2.22222C1.66158 20.0002 1.12159 19.7884 0.710502 19.4072C0.299412 19.026 0.0476038 18.5035 0.00555579 17.9444L1.11409e-07 17.7778V6.66667C-0.00017731 6.10603 0.211563 5.56604 0.592774 5.15495C0.973986 4.74386 1.49649 4.49205 2.05556 4.45L2.22222 4.44444H4.44444V2.22222C4.44427 1.66158 4.65601 1.12159 5.03722 0.710502C5.41843 0.299412 5.94094 0.0476038 6.5 0.00555579L6.66667 1.11409e-07H17.7778ZM13.3333 6.66667H2.22222V17.7778H13.3333V6.66667ZM17.7778 2.22222H6.66667V4.44444H13.3333L13.5 4.45C14.0291 4.48976 14.5265 4.71751 14.9023 5.09207C15.278 5.46663 15.5074 5.96328 15.5489 6.49222L15.5556 6.66667V13.3333H17.7778V2.22222Z" fill="#030923" fill-opacity="0.5"/>
</svg>
