<svg width="7" height="10" viewBox="0 0 7 10" fill="none" xmlns="http://www.w3.org/2000/svg">
<path d="M3.49976 0C3.87253 0 4.15824 0.2595 4.35425 0.544C4.55464 0.8345 4.71565 1.224 4.84298 1.66C5.09893 2.5375 5.24988 3.7185 5.24988 5C5.24988 6.2815 5.09893 7.4625 4.84298 8.34C4.71609 8.7765 4.55421 9.1655 4.35425 9.456C4.15824 9.741 3.87297 10 3.49976 10C2.97603 10 2.6247 9.501 2.41206 9.0385C2.17929 8.5345 2.00384 7.852 1.89183 7.0815C1.87292 6.95062 1.90028 6.8165 1.96789 6.70867C2.0355 6.60084 2.13783 6.52811 2.25236 6.5065C2.36689 6.48488 2.48425 6.51615 2.57861 6.59341C2.67297 6.67068 2.7366 6.78761 2.75552 6.9185C2.85834 7.6295 3.01322 8.1975 3.18605 8.5725C3.27268 8.7605 3.35362 8.8775 3.41794 8.9425C3.50282 9.0275 3.56407 8.9775 3.62314 8.899L3.66689 8.837C3.78065 8.672 3.90272 8.402 4.01254 8.024C4.23175 7.273 4.37482 6.204 4.37482 5C4.37482 3.796 4.23175 2.727 4.01298 1.976C3.90272 1.598 3.78109 1.328 3.66733 1.163L3.62533 1.105C3.56189 1.023 3.49582 0.974 3.40788 1.068C3.33656 1.144 3.24905 1.279 3.15848 1.49C3.06503 1.71323 2.98862 1.94525 2.93009 2.1835C3.02364 2.1641 3.12018 2.18005 3.20509 2.22894C3.29 2.27783 3.35867 2.35699 3.4007 2.45446C3.44272 2.55193 3.45582 2.66238 3.43801 2.76911C3.4202 2.87585 3.37246 2.97305 3.30199 3.046L3.25868 3.085L2.55119 3.651C2.45968 3.72936 2.3449 3.76352 2.23156 3.74613C2.11822 3.72873 2.01539 3.66118 1.94521 3.558L1.43068 2.7165C1.3706 2.61844 1.34329 2.49901 1.35373 2.3799C1.36416 2.2608 1.41164 2.14992 1.48754 2.06742C1.56344 1.98492 1.66272 1.93628 1.76734 1.93033C1.87195 1.92438 1.97497 1.96152 2.05766 2.035C2.1456 1.664 2.25148 1.33 2.37312 1.048C2.49169 0.773 2.63564 0.524 2.81065 0.337C2.98828 0.147 3.22105 0 3.49976 0ZM3.93729 4.5V5.5H0.437045C0.325528 5.49986 0.218266 5.45106 0.137176 5.36358C0.0560858 5.27609 0.00728801 5.15652 0.000752569 5.0293C-0.00578287 4.90208 0.0304375 4.77681 0.102013 4.67908C0.173589 4.58136 0.275117 4.51855 0.385854 4.5035L0.437045 4.5H3.93729ZM6.56247 4.5H5.68741V5.5H6.56247C6.67851 5.5 6.7898 5.44732 6.87185 5.35355C6.9539 5.25978 7 5.13261 7 5C7 4.86739 6.9539 4.74021 6.87185 4.64645C6.7898 4.55268 6.67851 4.5 6.56247 4.5Z" fill="white"/>
</svg>
