<svg width="11" height="12" viewBox="0 0 11 12" fill="none" xmlns="http://www.w3.org/2000/svg">
<path d="M9.1001 4.1001L8.1026 9.7731C8.0619 10.0048 7.94084 10.2147 7.76069 10.366C7.58053 10.5172 7.35283 10.6001 7.1176 10.6001H3.0826C2.84737 10.6001 2.61966 10.5172 2.43951 10.366C2.25936 10.2147 2.13829 10.0048 2.0976 9.7731L1.1001 4.1001M9.6001 2.6001H6.7876M6.7876 2.6001V1.6001C6.7876 1.33488 6.68224 1.08053 6.4947 0.892991C6.30717 0.705454 6.05281 0.600098 5.7876 0.600098H4.4126C4.14738 0.600098 3.89303 0.705454 3.70549 0.892991C3.51795 1.08053 3.4126 1.33488 3.4126 1.6001V2.6001M6.7876 2.6001H3.4126M0.600098 2.6001H3.4126" stroke="#030923" stroke-opacity="0.8" stroke-width="1.2" stroke-linecap="round" stroke-linejoin="round"/>
</svg>
