<svg width="10" height="11" viewBox="0 0 10 11" fill="none" xmlns="http://www.w3.org/2000/svg">
<path d="M9 4L8.0025 9.673C7.9618 9.90468 7.84074 10.1146 7.66059 10.2659C7.48044 10.4171 7.25273 10.5 7.0175 10.5H2.9825C2.74727 10.5 2.51956 10.4171 2.33941 10.2659C2.15926 10.1146 2.03819 9.90468 1.9975 9.673L1 4M9.5 2.5H6.6875M6.6875 2.5V1.5C6.6875 1.23478 6.58214 0.98043 6.39461 0.792893C6.20707 0.605357 5.95272 0.5 5.6875 0.5H4.3125C4.04728 0.5 3.79293 0.605357 3.60539 0.792893C3.41786 0.98043 3.3125 1.23478 3.3125 1.5V2.5M6.6875 2.5H3.3125M0.5 2.5H3.3125" stroke="white" stroke-linecap="round" stroke-linejoin="round"/>
</svg>
