<svg width="24" height="25" viewBox="0 0 24 25" fill="none" xmlns="http://www.w3.org/2000/svg">
<path d="M3.50003 6C3.50003 7.32608 4.02681 8.59785 4.9645 9.53553C5.90218 10.4732 7.17395 11 8.50003 11C9.82611 11 11.0979 10.4732 12.0356 9.53553C12.9732 8.59785 13.5 7.32608 13.5 6C13.5 4.67392 12.9732 3.40215 12.0356 2.46447C11.0979 1.52678 9.82611 1 8.50003 1C7.17395 1 5.90218 1.52678 4.9645 2.46447C4.02681 3.40215 3.50003 4.67392 3.50003 6ZM1.00003 23.5C1.01278 22.5236 1.00003 21 1.00003 21C1.00003 19.6739 1.52681 18.4021 2.4645 17.4645C3.40218 16.5268 4.67395 16 6.00003 16H11C12.3261 16 13.5979 16.5268 14.5356 17.4645C15.4732 18.4021 16 19.6739 16 21V23.5" fill="#736194"/>
<path d="M3.50003 6C3.50003 7.32608 4.02681 8.59785 4.9645 9.53553C5.90218 10.4732 7.17395 11 8.50003 11C9.82611 11 11.0979 10.4732 12.0356 9.53553C12.9732 8.59785 13.5 7.32608 13.5 6C13.5 4.67392 12.9732 3.40215 12.0356 2.46447C11.0979 1.52678 9.82611 1 8.50003 1C7.17395 1 5.90218 1.52678 4.9645 2.46447C4.02681 3.40215 3.50003 4.67392 3.50003 6ZM1.00003 23.5C1.01278 22.5236 1.00003 21 1.00003 21C1.00003 19.6739 1.52681 18.4021 2.4645 17.4645C3.40218 16.5268 4.67395 16 6.00003 16H11C12.3261 16 13.5979 16.5268 14.5356 17.4645C15.4732 18.4021 16 19.6739 16 21V23.5H1.00003Z" stroke="#736194" stroke-width="2" stroke-linecap="round" stroke-linejoin="round"/>
<path d="M10.5 6C10.5 7.32608 11.0268 8.59785 11.9645 9.53553C12.9022 10.4732 14.1739 11 15.5 11C16.8261 11 18.0979 10.4732 19.0356 9.53553C19.9732 8.59785 20.5 7.32608 20.5 6C20.5 4.67392 19.9732 3.40215 19.0356 2.46447C18.0979 1.52678 16.8261 1 15.5 1C14.1739 1 12.9022 1.52678 11.9645 2.46447C11.0268 3.40215 10.5 4.67392 10.5 6ZM8.00003 23.5C8.01278 22.5236 8.00003 21 8.00003 21C8.00003 19.6739 8.52681 18.4021 9.4645 17.4645C10.4022 16.5268 11.6739 16 13 16H18C19.3261 16 20.5979 16.5268 21.5356 17.4645C22.4732 18.4021 23 19.6739 23 21V23.5" fill="white"/>
<path d="M10.5 6C10.5 7.32608 11.0268 8.59785 11.9645 9.53553C12.9022 10.4732 14.1739 11 15.5 11C16.8261 11 18.0979 10.4732 19.0356 9.53553C19.9732 8.59785 20.5 7.32608 20.5 6C20.5 4.67392 19.9732 3.40215 19.0356 2.46447C18.0979 1.52678 16.8261 1 15.5 1C14.1739 1 12.9022 1.52678 11.9645 2.46447C11.0268 3.40215 10.5 4.67392 10.5 6ZM8.00003 23.5C8.01278 22.5236 8.00003 21 8.00003 21C8.00003 19.6739 8.52681 18.4021 9.4645 17.4645C10.4022 16.5268 11.6739 16 13 16H18C19.3261 16 20.5979 16.5268 21.5356 17.4645C22.4732 18.4021 23 19.6739 23 21V23.5H8.00003Z" stroke="white" stroke-width="2" stroke-linecap="round" stroke-linejoin="round"/>
</svg>
