<svg width="17" height="25" viewBox="0 0 17 25" fill="none" xmlns="http://www.w3.org/2000/svg">
<path d="M3.50003 6C3.50003 7.32608 4.02681 8.59785 4.9645 9.53553C5.90218 10.4732 7.17395 11 8.50003 11C9.82611 11 11.0979 10.4732 12.0356 9.53553C12.9732 8.59785 13.5 7.32608 13.5 6C13.5 4.67392 12.9732 3.40215 12.0356 2.46447C11.0979 1.52678 9.82611 1 8.50003 1C7.17395 1 5.90218 1.52678 4.9645 2.46447C4.02681 3.40215 3.50003 4.67392 3.50003 6ZM1.00003 23.5C1.01278 22.5236 1.00003 21 1.00003 21C1.00003 19.6739 1.52681 18.4021 2.4645 17.4645C3.40218 16.5268 4.67395 16 6.00003 16H11C12.3261 16 13.5979 16.5268 14.5356 17.4645C15.4732 18.4021 16 19.6739 16 21V23.5" fill="white"/>
<path d="M3.50003 6C3.50003 7.32608 4.02681 8.59785 4.9645 9.53553C5.90218 10.4732 7.17395 11 8.50003 11C9.82611 11 11.0979 10.4732 12.0356 9.53553C12.9732 8.59785 13.5 7.32608 13.5 6C13.5 4.67392 12.9732 3.40215 12.0356 2.46447C11.0979 1.52678 9.82611 1 8.50003 1C7.17395 1 5.90218 1.52678 4.9645 2.46447C4.02681 3.40215 3.50003 4.67392 3.50003 6ZM1.00003 23.5C1.01278 22.5236 1.00003 21 1.00003 21C1.00003 19.6739 1.52681 18.4021 2.4645 17.4645C3.40218 16.5268 4.67395 16 6.00003 16H11C12.3261 16 13.5979 16.5268 14.5356 17.4645C15.4732 18.4021 16 19.6739 16 21V23.5H1.00003Z" stroke="white" stroke-width="2" stroke-linecap="round" stroke-linejoin="round"/>
</svg>
