<svg width="22" height="22" viewBox="0 0 22 22" fill="none" xmlns="http://www.w3.org/2000/svg">
<path d="M0 3.75C0 2.75544 0.395088 1.80161 1.09835 1.09835C1.80161 0.395088 2.75544 0 3.75 0H18.25C19.2446 0 20.1984 0.395088 20.9017 1.09835C21.6049 1.80161 22 2.75544 22 3.75V18.25C22 19.2446 21.6049 20.1984 20.9017 20.9017C20.1984 21.6049 19.2446 22 18.25 22H3.75C2.75544 22 1.80161 21.6049 1.09835 20.9017C0.395088 20.1984 0 19.2446 0 18.25V3.75ZM3.75 1.5C3.15326 1.5 2.58097 1.73705 2.15901 2.15901C1.73705 2.58097 1.5 3.15326 1.5 3.75V10H20.5V3.75C20.5 3.15326 20.2629 2.58097 19.841 2.15901C19.419 1.73705 18.8467 1.5 18.25 1.5H3.75ZM1.5 14.174L3.64 11.5H1.5V14.174ZM2.76 15H7.294L8.389 11.5H5.56L2.76 15ZM1.5 16.5V18.25C1.5 18.8467 1.73705 19.419 2.15901 19.841C2.58097 20.2629 3.15326 20.5 3.75 20.5H5.574L6.825 16.5H1.5ZM8.397 16.5L7.145 20.5H15.355L14.103 16.5H8.397ZM15.675 16.5L16.926 20.5H18.25C18.8467 20.5 19.419 20.2629 19.841 19.841C20.2629 19.419 20.5 18.8467 20.5 18.25V16.5H15.675ZM19.239 15L16.439 11.5H14.111L15.206 15H19.239ZM13.634 15L12.539 11.5H9.961L8.866 15H13.634ZM20.5 14.174V11.5H18.36L20.5 14.174Z" fill="white"/>
</svg>
