<svg width="20" height="14" viewBox="0 0 20 14" fill="none" xmlns="http://www.w3.org/2000/svg">
<path d="M19.2661 0H6.88073C6.47477 0 6.14679 0.331457 6.14679 0.741722V6.21192H0.733945C0.327982 6.21192 0 6.54338 0 6.95364V13.2583C0 13.6685 0.327982 14 0.733945 14H13.1193C13.5252 14 13.8532 13.6685 13.8532 13.2583V7.78808H19.2661C19.672 7.78808 20 7.45662 20 7.04636V0.741722C20 0.331457 19.672 0 19.2661 0ZM7.70642 1.57616H12.2936V6.21192H7.70642V1.57616ZM6.14679 12.4238H1.55963V7.78808H6.14679V12.4238ZM12.2936 12.4238H7.70642V7.78808H12.2936V12.4238ZM18.4404 6.21192H13.8532V1.57616H18.4404V6.21192Z" fill="white"/>
</svg>
