<svg width="14" height="14" viewBox="0 0 14 14" fill="none" xmlns="http://www.w3.org/2000/svg">
<path d="M5.25119 1.37205L0.86337 5.73293C0.630704 5.96424 0.5 6.27792 0.5 6.60499C0.5 6.93205 0.630704 7.24573 0.86337 7.47704L4.37313 10.9659C4.48839 11.0805 4.62527 11.1715 4.77593 11.2336C4.9266 11.2957 5.08809 11.3276 5.25119 11.3276C5.41429 11.3276 5.57578 11.2957 5.72645 11.2336C5.87711 11.1715 6.01399 11.0805 6.12925 10.9659L10.5165 6.60499L5.25119 1.37205ZM5.25119 1.37205L4.37375 0.5" stroke="#030923" stroke-opacity="0.8" stroke-linecap="round" stroke-linejoin="round"/>
<path d="M11.6385 8.63574C11.6385 8.63574 13.5001 10.4816 13.5001 11.6497C13.5001 12.6704 12.6655 13.4999 11.6385 13.4999C10.6115 13.4999 9.7843 12.6704 9.77686 11.6497C9.78306 10.481 11.6385 8.63574 11.6385 8.63574Z" stroke="#030923" stroke-opacity="0.8" stroke-miterlimit="1.5" stroke-linecap="round" stroke-linejoin="round"/>
</svg>
