<svg width="12" height="9" viewBox="0 0 12 9" fill="none" xmlns="http://www.w3.org/2000/svg">
<path d="M0.5 1.8335H6.6875M9.4375 1.8335H11.5M5.3125 7.16683H11.5M0.5 7.16683H2.5625" stroke="#353A4F" stroke-linecap="round" stroke-linejoin="round"/>
<path d="M3.9375 8.50016C4.69689 8.50016 5.3125 7.90321 5.3125 7.16683C5.3125 6.43045 4.69689 5.8335 3.9375 5.8335C3.17811 5.8335 2.5625 6.43045 2.5625 7.16683C2.5625 7.90321 3.17811 8.50016 3.9375 8.50016Z" stroke="#353A4F"/>
<path d="M8.0625 3.16667C8.82189 3.16667 9.4375 2.56971 9.4375 1.83333C9.4375 1.09695 8.82189 0.5 8.0625 0.5C7.30311 0.5 6.6875 1.09695 6.6875 1.83333C6.6875 2.56971 7.30311 3.16667 8.0625 3.16667Z" stroke="#353A4F"/>
</svg>
