<svg width="24" height="24" viewBox="0 0 24 24" fill="none" xmlns="http://www.w3.org/2000/svg">
<path d="M15.0001 4H16.0001C16.2653 4 16.5197 4.10536 16.7072 4.29289C16.8947 4.48043 17.0001 4.73478 17.0001 5V8.5M20.0001 6C20.2641 6.112 20.5201 6.217 20.7681 6.315C21.0122 6.41859 21.2052 6.6149 21.3046 6.86075C21.404 7.1066 21.4016 7.38187 21.2981 7.626L19.0001 13M3.6041 7.197L10.7421 4.088C10.8599 4.03752 10.9866 4.01112 11.1147 4.01038C11.2429 4.00964 11.3699 4.03456 11.4882 4.08368C11.6066 4.13279 11.7139 4.20511 11.8039 4.29636C11.8939 4.38761 11.9647 4.49595 12.0121 4.615L16.9361 16.517C17.0385 16.7583 17.0419 17.0302 16.9458 17.2741C16.8497 17.518 16.6616 17.7144 16.4221 17.821L9.2851 20.93C9.16726 20.9806 9.04047 21.0072 8.91222 21.008C8.78396 21.0088 8.65684 20.9839 8.53836 20.9348C8.41988 20.8857 8.31245 20.8133 8.2224 20.722C8.13236 20.6306 8.06153 20.5222 8.0141 20.403L3.0901 8.5C2.98775 8.25865 2.98427 7.98677 3.08041 7.74288C3.17654 7.49899 3.3646 7.3036 3.6041 7.197Z" stroke="white" stroke-width="2" stroke-linecap="round" stroke-linejoin="round"/>
</svg>
