<svg width="22" height="16" viewBox="0 0 22 16" fill="none" xmlns="http://www.w3.org/2000/svg">
<path d="M18.75 5.75C19.2804 5.75 19.7891 5.96071 20.1642 6.33579C20.5393 6.71086 20.75 7.21957 20.75 7.75V10.194C20.75 11.1371 20.3754 12.0416 19.7085 12.7085C19.0416 13.3754 18.1371 13.75 17.194 13.75H4.306C3.36289 13.75 2.45841 13.3754 1.79153 12.7085C1.12465 12.0416 0.75 11.1371 0.75 10.194V7.75C0.75 7.21957 0.960714 6.71086 1.33579 6.33579C1.71086 5.96071 2.21957 5.75 2.75 5.75M18.75 5.75C18.2196 5.75 17.7109 5.96071 17.3358 6.33579C16.9607 6.71086 16.75 7.21957 16.75 7.75V8.95C16.75 9.16217 16.6657 9.36566 16.5157 9.51569C16.3657 9.66571 16.1622 9.75 15.95 9.75H5.55C5.33783 9.75 5.13434 9.66571 4.98431 9.51569C4.83429 9.36566 4.75 9.16217 4.75 8.95V7.75C4.75 7.21957 4.53929 6.71086 4.16421 6.33579C3.78914 5.96071 3.28043 5.75 2.75 5.75M18.75 5.75C18.75 4.82 18.75 4.356 18.673 3.97C18.5187 3.19401 18.1377 2.48121 17.5782 1.92175C17.0188 1.3623 16.306 0.981317 15.53 0.827C15.144 0.75 14.68 0.75 13.75 0.75H7.75C6.82 0.75 6.356 0.75 5.97 0.827C5.19401 0.981317 4.48121 1.3623 3.92175 1.92175C3.3623 2.48121 2.98132 3.19401 2.827 3.97C2.75 4.356 2.75 4.82 2.75 5.75M18.75 14.75V13.75M2.75 14.75V13.75" stroke="white" stroke-width="1.5" stroke-linecap="round"/>
</svg>
