<svg width="10" height="10" viewBox="0 0 10 10" fill="none" xmlns="http://www.w3.org/2000/svg">
<path d="M9.59555 0.0101124C9.82586 0.0573034 10 0.261798 10 0.505618V5L9.98876 5.10225C9.96556 5.21655 9.90355 5.31931 9.81326 5.39312C9.72297 5.46693 9.60993 5.50725 9.49331 5.50725C9.3767 5.50725 9.26366 5.46693 9.17337 5.39312C9.08307 5.31931 9.02107 5.21655 8.99786 5.10225L8.98775 5.00112V1.72472L1.72677 8.98876L4.99944 8.98989L5.10167 9C5.22354 9.02612 5.33146 9.09635 5.40472 9.19719C5.47798 9.29804 5.51141 9.42239 5.4986 9.54638C5.48578 9.67037 5.42762 9.78525 5.33529 9.86897C5.24295 9.9527 5.12295 9.99936 4.99831 10H0.505561C0.371478 10 0.242887 9.94673 0.148076 9.85191C0.0532645 9.75709 0 9.62848 0 9.49438V5L0.0112347 4.89888C0.0344414 4.78458 0.0964451 4.68182 0.18674 4.60801C0.277034 4.5342 0.390066 4.49388 0.506685 4.49388C0.623303 4.49388 0.736336 4.5342 0.82663 4.60801C0.916924 4.68182 0.978928 4.78458 1.00213 4.89888L1.01112 5V8.27416L8.27323 1.01124H4.99944C4.86535 1.01124 4.73676 0.957966 4.64195 0.863144C4.54714 0.768322 4.49388 0.639716 4.49388 0.505618C4.49388 0.37152 4.54714 0.242914 4.64195 0.148092C4.73676 0.0532705 4.86535 0 4.99944 0H9.49331L9.59555 0.0101124Z" fill="#030923" fill-opacity="0.8"/>
</svg>
